<svg width="16" height="16" viewBox="0 0 16 16" fill="none" xmlns="http://www.w3.org/2000/svg">
<path fill-rule="evenodd" clip-rule="evenodd" d="M11.9114 14.6666C13.1043 14.6666 13.8882 14.3463 14.5767 13.5692C14.6312 13.5147 14.6858 13.4533 14.7335 13.3988C15.1425 12.9421 15.3333 12.4922 15.3333 12.0627C15.3333 11.5719 15.047 11.1152 14.4404 10.6926L12.4567 9.31566C11.8432 8.89303 11.1275 8.84532 10.5549 9.41109L10.03 9.93596C9.87321 10.0927 9.73688 10.0996 9.58691 10.0041C9.21881 9.77237 8.4758 9.12479 7.97137 8.62037C7.43967 8.0955 6.92843 7.50927 6.65576 7.07983C6.56714 6.92305 6.57396 6.79354 6.73074 6.63676L7.24881 6.11188C7.8214 5.53929 7.77369 4.81674 7.35106 4.21007L5.9741 2.22645C5.55147 1.61978 5.09475 1.3403 4.60395 1.33348C4.17451 1.32667 3.72461 1.52435 3.26789 1.93334C3.20654 1.98787 3.15201 2.03559 3.09748 2.0833C2.32038 2.77859 2 3.56249 2 4.74176C2 6.69129 3.19973 9.06345 5.4015 11.2652C7.58964 13.4533 9.96864 14.6666 11.9114 14.6666ZM11.9182 13.6169C10.18 13.651 7.95092 12.3149 6.18541 10.5563C4.40627 8.78397 3.00886 6.47998 3.04294 4.74176C3.05658 3.99194 3.32243 3.34436 3.85412 2.88084C3.90184 2.83994 3.93592 2.80586 3.98364 2.77177C4.18814 2.59454 4.40627 2.49911 4.60395 2.49911C4.80164 2.49911 4.97887 2.57409 5.10838 2.77859L6.43081 4.76221C6.57396 4.97352 6.58759 5.2121 6.37628 5.42341L5.77641 6.02327C5.30607 6.49361 5.34015 7.0662 5.68098 7.52291C6.06953 8.04778 6.74438 8.81123 7.26926 9.32929C7.78732 9.85417 8.61213 10.5904 9.14383 10.9857C9.60055 11.3265 10.1731 11.3606 10.6435 10.8903L11.2434 10.2904C11.4547 10.0791 11.6864 10.0927 11.9046 10.2291L13.8882 11.5515C14.0927 11.6878 14.1677 11.8582 14.1677 12.0627C14.1677 12.2604 14.0723 12.4785 13.895 12.683C13.8541 12.7307 13.8269 12.7648 13.786 12.8125C13.3224 13.3442 12.6748 13.6033 11.9182 13.6169Z" fill="#7B8E98"/>
</svg>
