<svg id="Слой_1" data-name="Слой 1" xmlns="http://www.w3.org/2000/svg" viewBox="0 0 108.72 69.05"><defs><style>.cls-1,.cls-2,.cls-4{fill:none;stroke:#1d262d;stroke-linecap:round;stroke-linejoin:round;}.cls-1{stroke-width:1.07px;}.cls-2{stroke-width:1.08px;}.cls-3{fill:#1d262d;}.cls-4{stroke-width:1.19px;}.cls-5{font-size:18px;fill:#010101;font-family:Montserrat-Regular, Montserrat: regular;}.cls-6{letter-spacing:-0.04em;}.cls-7{letter-spacing:0em;}.cls-8{letter-spacing:0em;}</style></defs><title>flora</title><line class="cls-1" x1="108.19" y1="12.37" x2="83.43" y2="12.28"/><line class="cls-1" x1="83.26" y1="55.6" x2="108.02" y2="55.69"/><line class="cls-1" x1="25.46" y1="12.37" x2="0.71" y2="12.28"/><line class="cls-1" x1="0.54" y1="55.6" x2="25.3" y2="55.69"/><path class="cls-2" d="M397.86,347.08c8.95-4.56,23.49-8.23,39.69,2.36" transform="translate(-364.91 -286.15)"/><path class="cls-3" d="M403.3,344.53a8.45,8.45,0,0,0,7.63,2.76c4.63-.88,6.74.12,6.74.12S412.33,341.3,403.3,344.53Z" transform="translate(-364.91 -286.15)"/><path class="cls-4" d="M417.09,342.69a8.44,8.44,0,0,0,5.93,5.52c4.6,1,6.16,2.77,6.16,2.77S426.66,343.26,417.09,342.69Z" transform="translate(-364.91 -286.15)"/><path class="cls-3" d="M427.75,344.7a8.44,8.44,0,0,0,4.72,6.59c4.32,1.9,5.5,3.92,5.5,3.92S437,347.15,427.75,344.7Z" transform="translate(-364.91 -286.15)"/><path class="cls-4" d="M406,343.62a8.42,8.42,0,0,1,5.27-6.15c4.47-1.52,5.82-3.42,5.82-3.42S415.44,342,406,343.62Z" transform="translate(-364.91 -286.15)"/><path class="cls-3" d="M415.65,342.43a8.45,8.45,0,0,1,6.35-5c4.67-.64,6.36-2.26,6.36-2.26S425.24,342.62,415.65,342.43Z" transform="translate(-364.91 -286.15)"/><path class="cls-4" d="M425.33,343.56a8.43,8.43,0,0,1,7.89-1.82c4.5,1.42,6.72.68,6.72.68S433.91,347.85,425.33,343.56Z" transform="translate(-364.91 -286.15)"/><path class="cls-2" d="M440.94,294.28c-9,4.56-23.49,8.24-39.7-2.35" transform="translate(-364.91 -286.15)"/><path class="cls-3" d="M435.49,296.83a8.42,8.42,0,0,0-7.62-2.75c-4.63.87-6.75-.12-6.75-.12S426.47,300.06,435.49,296.83Z" transform="translate(-364.91 -286.15)"/><path class="cls-4" d="M421.7,298.68a8.43,8.43,0,0,0-5.92-5.53c-4.61-1-6.16-2.76-6.16-2.76S412.13,298.1,421.7,298.68Z" transform="translate(-364.91 -286.15)"/><path class="cls-3" d="M411.05,296.66a8.43,8.43,0,0,0-4.73-6.59c-4.31-1.9-5.49-3.92-5.49-3.92S401.78,294.21,411.05,296.66Z" transform="translate(-364.91 -286.15)"/><path class="cls-4" d="M432.8,297.74a8.43,8.43,0,0,1-5.28,6.15c-4.46,1.52-5.81,3.43-5.81,3.43S423.35,299.38,432.8,297.74Z" transform="translate(-364.91 -286.15)"/><path class="cls-3" d="M423.14,298.94a8.4,8.4,0,0,1-6.35,5c-4.67.65-6.36,2.26-6.36,2.26S413.56,298.74,423.14,298.94Z" transform="translate(-364.91 -286.15)"/><path class="cls-4" d="M413.46,297.8a8.43,8.43,0,0,1-7.89,1.82c-4.5-1.42-6.71-.68-6.71-.68S404.88,293.52,413.46,297.8Z" transform="translate(-364.91 -286.15)"/><text class="cls-5" transform="translate(30.49 40.51)">F<tspan class="cls-6" x="8.77" y="0">L</tspan><tspan x="16.56" y="0">O</tspan><tspan class="cls-7" x="28.96" y="0">R</tspan><tspan class="cls-8" x="38.74" y="0">A</tspan></text></svg>